<svg width="599" height="200" viewBox="0 0 599 200" fill="none" xmlns="http://www.w3.org/2000/svg">
<g clip-path="url(#clip0_8150_373974)">
<path d="M550.674 0.00052793H47.6734C45.8399 0.00052793 44.0284 0.00052793 42.1997 0.0105279C40.669 0.0205279 39.1504 0.0495779 37.605 0.0740279C34.2476 0.113537 30.898 0.408909 27.5855 0.957578C24.2776 1.51819 21.0734 2.57511 18.0811 4.09258C15.0925 5.62289 12.3617 7.61137 9.98785 9.98588C7.60151 12.3537 5.61232 15.0906 4.09675 18.0913C2.577 21.0861 1.5232 24.2952 0.97175 27.6079C0.415055 30.9165 0.115492 34.2631 0.07575 37.6179C0.02935 39.1509 0.02445 40.689 0 42.2222V157.794C0.02445 159.346 0.02935 160.85 0.07575 162.403C0.115504 165.758 0.415067 169.104 0.97175 172.413C1.52168 175.727 2.57554 178.938 4.09675 181.934C5.61163 184.925 7.6011 187.651 9.98785 190.006C12.3527 192.391 15.0853 194.38 18.0811 195.899C21.0733 197.421 24.2773 198.484 27.5855 199.053C30.8986 199.597 34.2478 199.893 37.605 199.937C39.1504 199.971 40.669 199.991 42.1997 199.991C44.0284 200.001 45.84 200.001 47.6734 200.001H550.674C552.471 200.001 554.297 200.001 556.094 199.991C557.617 199.991 559.18 199.971 560.703 199.937C564.054 199.895 567.397 199.6 570.703 199.053C574.022 198.48 577.238 197.417 580.244 195.899C583.237 194.38 585.967 192.39 588.33 190.006C590.711 187.642 592.705 184.918 594.238 181.934C595.748 178.936 596.792 175.725 597.334 172.413C597.891 169.104 598.202 165.758 598.262 162.403C598.281 160.85 598.281 159.346 598.281 157.794C598.32 155.977 598.32 154.171 598.32 152.325V47.6812C598.32 45.8501 598.32 44.0337 598.281 42.2222C598.281 40.689 598.281 39.1509 598.262 37.6177C598.202 34.2626 597.891 30.9167 597.334 27.6077C596.79 24.2969 595.747 21.088 594.238 18.0911C591.152 12.0765 586.258 7.18066 580.244 4.09213C577.238 2.57836 574.022 1.52173 570.703 0.957128C567.398 0.406042 564.054 0.110567 560.703 0.0733279C559.18 0.0489279 557.617 0.0196279 556.094 0.00987793C554.297 -0.00012207 552.471 -0.00012207 550.674 -0.00012207V0.00052793Z" fill="#A6A6A6"/>
<path d="M42.2242 195.625C40.7008 195.625 39.2142 195.605 37.7027 195.572C34.5716 195.531 31.4478 195.258 28.357 194.756C25.475 194.26 22.683 193.336 20.0733 192.017C17.4875 190.708 15.1291 188.991 13.0883 186.934C11.018 184.9 9.29439 182.541 7.98575 179.951C6.6627 177.344 5.74707 174.549 5.27075 171.665C4.75637 168.566 4.47807 165.432 4.43825 162.29C4.40655 161.236 4.36505 157.725 4.36505 157.725V42.2217C4.36505 42.2217 4.40925 38.7646 4.4385 37.749C4.47663 34.6124 4.75331 31.4833 5.26615 28.3887C5.74335 25.4963 6.65969 22.6937 7.98345 20.0781C9.28728 17.4897 11.0013 15.1293 13.0592 13.0884C15.1147 11.0281 17.4807 9.30302 20.0709 7.97605C22.6746 6.66047 25.4612 5.74366 28.3375 5.25635C31.4384 4.74918 34.5731 4.47498 37.715 4.43605L42.2266 4.375H556.069L560.635 4.4385C563.748 4.4755 566.854 4.74725 569.927 5.25145C572.832 5.74488 575.648 6.66808 578.281 7.9907C583.471 10.6649 587.693 14.8958 590.356 20.0904C591.659 22.6879 592.561 25.4675 593.032 28.3349C593.551 31.455 593.842 34.6087 593.901 37.771C593.916 39.187 593.916 40.708 593.916 42.2217C593.955 44.0967 593.955 45.8814 593.955 47.6806V152.324C593.955 154.141 593.955 155.913 593.916 157.7C593.916 159.326 593.916 160.816 593.896 162.348C593.838 165.454 593.552 168.552 593.042 171.616C592.575 174.521 591.665 177.338 590.342 179.966C589.024 182.528 587.31 184.866 585.264 186.895C583.221 188.963 580.859 190.69 578.267 192.007C575.641 193.337 572.829 194.264 569.927 194.756C566.836 195.261 563.712 195.533 560.581 195.572C559.116 195.605 557.583 195.625 556.094 195.625L550.674 195.635L42.2242 195.625Z" fill="black"/>
<path d="M123.844 101.504C123.898 97.3305 125.007 93.2386 127.067 89.6089C129.127 85.9791 132.072 82.9294 135.627 80.7435C133.368 77.5177 130.389 74.863 126.925 72.9903C123.46 71.1175 119.607 70.0783 115.671 69.9551C107.275 69.0738 99.1354 74.9793 94.8569 74.9793C90.4955 74.9793 83.908 70.0426 76.8143 70.1886C72.226 70.3368 67.7542 71.6711 63.8349 74.0614C59.9155 76.4517 56.6821 79.8165 54.4498 83.8279C44.7798 100.57 51.9927 125.175 61.2557 138.708C65.8902 145.335 71.3067 152.737 78.3939 152.475C85.3292 152.187 87.9194 148.052 96.2909 148.052C104.585 148.052 107.015 152.475 114.246 152.308C121.688 152.187 126.377 145.652 130.848 138.962C134.178 134.24 136.741 129.022 138.441 123.5C134.117 121.671 130.427 118.61 127.832 114.699C125.236 110.787 123.849 106.198 123.844 101.504Z" fill="white"/>
<path d="M110.186 61.0542C114.244 56.1831 116.243 49.9222 115.759 43.6011C109.56 44.2522 103.833 47.215 99.7209 51.8991C97.7102 54.1875 96.1702 56.8496 95.189 59.7335C94.2077 62.6173 93.8045 65.6663 94.0023 68.7061C97.103 68.738 100.171 68.0659 102.974 66.7405C105.777 65.4151 108.243 63.4708 110.186 61.0542Z" fill="white"/>
<path d="M211.511 135.698H187.844L182.161 152.48H172.136L194.553 90.3905H204.968L227.385 152.48H217.19L211.511 135.698ZM190.295 127.954H209.055L199.807 100.718H199.549L190.295 127.954Z" fill="white"/>
<path d="M275.798 129.849C275.798 143.917 268.269 152.955 256.907 152.955C254.028 153.105 251.166 152.442 248.647 151.042C246.128 149.641 244.054 147.559 242.664 145.035H242.449V167.457H233.157V107.213H242.151V114.742H242.322C243.777 112.23 245.885 110.159 248.423 108.749C250.962 107.34 253.834 106.645 256.736 106.739C268.225 106.739 275.798 115.821 275.798 129.849ZM266.248 129.849C266.248 120.684 261.511 114.659 254.285 114.659C247.185 114.659 242.41 120.811 242.41 129.849C242.41 138.971 247.185 145.079 254.285 145.079C261.511 145.079 266.248 139.098 266.248 129.849Z" fill="white"/>
<path d="M325.623 129.849C325.623 143.917 318.093 152.955 306.731 152.955C303.853 153.105 300.99 152.442 298.471 151.042C295.952 149.641 293.879 147.559 292.488 145.035H292.273V167.457H282.981V107.213H291.975V114.742H292.146C293.601 112.23 295.709 110.159 298.247 108.749C300.786 107.34 303.658 106.645 306.56 106.739C318.049 106.739 325.623 115.821 325.623 129.849ZM316.072 129.849C316.072 120.684 311.335 114.659 304.109 114.659C297.009 114.659 292.234 120.811 292.234 129.849C292.234 138.971 297.009 145.079 304.109 145.079C311.335 145.079 316.072 139.097 316.072 129.849H316.072Z" fill="white"/>
<path d="M358.552 135.181C359.241 141.338 365.222 145.381 373.396 145.381C381.228 145.381 386.863 141.338 386.863 135.786C386.863 130.967 383.464 128.081 375.418 126.103L367.371 124.165C355.969 121.411 350.676 116.079 350.676 107.427C350.676 96.7137 360.012 89.3553 373.269 89.3553C386.389 89.3553 395.383 96.7137 395.686 107.427H386.306C385.745 101.23 380.622 97.4901 373.137 97.4901C365.652 97.4901 360.53 101.274 360.53 106.782C360.53 111.172 363.801 113.755 371.804 115.732L378.645 117.412C391.384 120.425 396.677 125.542 396.677 134.624C396.677 146.24 387.424 153.515 372.707 153.515C358.938 153.515 349.641 146.411 349.04 135.18L358.552 135.181Z" fill="white"/>
<path d="M416.731 96.4989V107.212H425.339V114.57H416.731V139.526C416.731 143.403 418.455 145.21 422.239 145.21C423.261 145.192 424.281 145.12 425.295 144.995V152.309C423.594 152.627 421.865 152.771 420.134 152.739C410.969 152.739 407.395 149.297 407.395 140.517V114.57H400.813V107.212H407.395V96.4989H416.731Z" fill="white"/>
<path d="M430.325 129.849C430.325 115.605 438.713 106.655 451.795 106.655C464.92 106.655 473.269 115.605 473.269 129.849C473.269 144.131 464.964 153.042 451.795 153.042C438.63 153.042 430.325 144.131 430.325 129.849ZM463.801 129.849C463.801 120.078 459.324 114.312 451.795 114.312C444.265 114.312 439.793 120.122 439.793 129.849C439.793 139.658 444.265 145.381 451.795 145.381C459.324 145.381 463.801 139.658 463.801 129.849H463.801Z" fill="white"/>
<path d="M480.93 107.212H489.793V114.917H490.008C490.607 112.511 492.017 110.384 494 108.895C495.983 107.405 498.418 106.644 500.896 106.739C501.967 106.735 503.035 106.851 504.08 107.085V115.777C502.728 115.364 501.318 115.174 499.905 115.215C498.555 115.16 497.209 115.398 495.96 115.913C494.711 116.427 493.588 117.206 492.668 118.195C491.748 119.185 491.053 120.362 490.631 121.645C490.209 122.928 490.069 124.288 490.222 125.63V152.481H480.93L480.93 107.212Z" fill="white"/>
<path d="M546.921 139.184C545.671 147.402 537.668 153.042 527.429 153.042C514.26 153.042 506.086 144.219 506.086 130.063C506.086 115.864 514.304 106.655 527.039 106.655C539.563 106.655 547.439 115.259 547.439 128.984V132.168H515.466V132.729C515.319 134.395 515.527 136.074 516.078 137.653C516.629 139.232 517.51 140.676 518.661 141.889C519.813 143.101 521.21 144.055 522.759 144.687C524.307 145.318 525.973 145.613 527.644 145.552C529.84 145.757 532.043 145.249 533.927 144.102C535.811 142.954 537.273 141.23 538.098 139.184L546.921 139.184ZM515.51 125.674H538.142C538.225 124.176 537.998 122.677 537.475 121.271C536.952 119.865 536.143 118.582 535.101 117.503C534.058 116.424 532.804 115.573 531.416 115.001C530.029 114.43 528.539 114.152 527.039 114.184C525.525 114.175 524.025 114.466 522.625 115.04C521.225 115.614 519.952 116.459 518.88 117.527C517.809 118.595 516.959 119.865 516.381 121.263C515.802 122.662 515.506 124.161 515.51 125.674V125.674Z" fill="white"/>
<path d="M189.131 43.6546C191.079 43.5148 193.034 43.8091 194.854 44.5163C196.675 45.2234 198.316 46.3258 199.659 47.7439C201.002 49.1621 202.013 50.8606 202.62 52.7169C203.227 54.5733 203.415 56.5412 203.169 58.4788C203.169 68.01 198.018 73.4888 189.131 73.4888H178.355V43.6546H189.131ZM182.988 69.2696H188.613C190.005 69.3528 191.398 69.1245 192.691 68.6015C193.984 68.0784 195.144 67.2737 196.086 66.2458C197.029 65.218 197.73 63.993 198.139 62.6599C198.549 61.3268 198.656 59.9192 198.452 58.5396C198.641 57.1654 198.523 55.7666 198.107 54.4432C197.692 53.1199 196.989 51.9049 196.048 50.8852C195.108 49.8656 193.954 49.0666 192.668 48.5454C191.383 48.0242 189.998 47.7938 188.613 47.8706H182.988V69.2696Z" fill="white"/>
<path d="M228.56 67.41C227.956 69.4677 226.648 71.2476 224.865 72.4383C223.081 73.6291 220.936 74.1548 218.804 73.9236C217.321 73.9628 215.847 73.6787 214.484 73.091C213.121 72.5034 211.903 71.6263 210.914 70.5206C209.924 69.4149 209.187 68.1071 208.754 66.688C208.32 65.2689 208.201 63.7724 208.404 62.3025C208.206 60.8281 208.328 59.3284 208.76 57.9051C209.192 56.4817 209.926 55.1679 210.91 54.0525C211.894 52.9371 213.107 52.0463 214.465 51.4402C215.824 50.8342 217.297 50.5271 218.784 50.5398C225.049 50.5398 228.828 54.8198 228.828 61.8898V63.4403H212.93V63.6893C212.861 64.5155 212.964 65.3472 213.235 66.1309C213.506 66.9147 213.937 67.6332 214.502 68.2405C215.066 68.8478 215.751 69.3304 216.513 69.6574C217.275 69.9844 218.097 70.1485 218.926 70.1393C219.989 70.2669 221.066 70.0755 222.02 69.5895C222.974 69.1035 223.761 68.3447 224.283 67.4098L228.56 67.41ZM212.93 60.1541H224.302C224.358 59.3985 224.255 58.6395 224 57.9259C223.746 57.2123 223.344 56.5599 222.822 56.0106C222.3 55.4613 221.669 55.0273 220.97 54.7364C220.27 54.4455 219.517 54.3042 218.76 54.3216C217.991 54.312 217.229 54.4563 216.517 54.746C215.805 55.0358 215.158 55.4651 214.615 56.0086C214.072 56.5522 213.643 57.199 213.353 57.911C213.064 58.623 212.92 59.3856 212.93 60.1541H212.93Z" fill="white"/>
<path d="M243.023 50.5396C248.086 50.5396 251.397 52.8955 251.831 56.8652H247.568C247.158 55.2124 245.542 54.1577 243.023 54.1577C240.542 54.1577 238.658 55.3345 238.658 57.0923C238.658 58.4373 239.795 59.2847 242.237 59.8437L245.977 60.7104C250.259 61.7041 252.266 63.5449 252.266 66.853C252.266 71.0913 248.316 73.9233 242.94 73.9233C237.583 73.9233 234.092 71.5039 233.696 67.5146H238.145C238.528 68.4641 239.219 69.2573 240.107 69.7669C240.995 70.2765 242.029 70.4729 243.042 70.3246C245.811 70.3246 247.778 69.0846 247.778 67.2851C247.778 65.9423 246.724 65.0732 244.468 64.5361L240.542 63.6254C236.26 62.6122 234.277 60.6909 234.277 57.3412C234.277 53.3496 237.935 50.5396 243.023 50.5396Z" fill="white"/>
<path d="M272.993 58.3331C272.71 57.1656 272.018 56.1381 271.043 55.4368C270.067 54.7355 268.873 54.4066 267.676 54.5098C263.955 54.5098 261.68 57.3614 261.68 62.1588C261.68 67.0391 263.975 69.9542 267.676 69.9542C268.861 70.0915 270.055 69.7911 271.035 69.1095C272.014 68.428 272.71 67.4121 272.993 66.253H277.315C277.029 68.5329 275.864 70.6109 274.068 72.0439C272.272 73.4769 269.987 74.1515 267.7 73.9239C266.195 73.9715 264.697 73.6895 263.312 73.0978C261.927 72.5061 260.688 71.6189 259.681 70.4983C258.675 69.3778 257.926 68.0508 257.486 66.6103C257.046 65.1699 256.926 63.6506 257.134 62.1589C256.936 60.6782 257.064 59.1722 257.508 57.7459C257.952 56.3196 258.703 55.0075 259.706 53.9011C260.71 52.7948 261.943 51.9209 263.32 51.3404C264.696 50.7599 266.183 50.4868 267.676 50.5403C269.981 50.328 272.278 51.0235 274.078 52.4789C275.878 53.9344 277.039 56.0348 277.315 58.3332L272.993 58.3331Z" fill="white"/>
<path d="M281.724 67.1216C281.724 63.0689 284.741 60.7325 290.098 60.4004L296.196 60.0489V58.1055C296.196 55.7276 294.624 54.3848 291.587 54.3848C289.107 54.3848 287.388 55.2955 286.895 56.8873H282.593C283.047 53.0201 286.685 50.5396 291.792 50.5396C297.437 50.5396 300.62 53.3496 300.62 58.1055V73.4888H296.343V70.3248H295.991C295.278 71.4597 294.276 72.385 293.088 73.006C291.9 73.6271 290.568 73.9217 289.229 73.8598C288.284 73.9581 287.328 73.8572 286.424 73.5637C285.521 73.2702 284.688 72.7906 283.981 72.1558C283.274 71.5209 282.708 70.745 282.319 69.8779C281.93 69.0108 281.728 68.0719 281.724 67.1216ZM296.196 65.1978V63.3155L290.698 63.667C287.598 63.8745 286.192 64.9292 286.192 66.9141C286.192 68.9404 287.949 70.1196 290.367 70.1196C291.075 70.1913 291.79 70.1198 292.47 69.9093C293.15 69.6989 293.781 69.3538 294.325 68.8946C294.869 68.4354 295.315 67.8715 295.636 67.2364C295.958 66.6013 296.148 65.908 296.196 65.1978ZM289.126 47.2095L294.317 40.0977H299.527L293.716 47.2095H289.126Z" fill="white"/>
<path d="M307.578 50.9734H311.856V54.4256H312.188C312.667 53.2272 313.513 52.2114 314.605 51.524C315.697 50.8367 316.979 50.5131 318.267 50.5999C318.932 50.5909 319.597 50.6531 320.249 50.7854V55.1704C319.434 54.9962 318.603 54.9062 317.769 54.9019C317.036 54.8361 316.297 54.9243 315.601 55.1609C314.904 55.3975 314.264 55.7772 313.723 56.2757C313.182 56.7742 312.751 57.3803 312.458 58.0553C312.165 58.7302 312.016 59.459 312.022 60.1948V73.4883H307.578L307.578 50.9734Z" fill="white"/>
<path d="M324.331 75.742H328.88C329.256 77.3753 331.135 78.43 334.133 78.43C337.835 78.43 340.027 76.6722 340.027 73.6961V69.3748H339.695C338.998 70.5845 337.98 71.5779 336.754 72.2453C335.528 72.9127 334.141 73.2281 332.747 73.1566C327 73.1566 323.443 68.7132 323.443 61.9725C323.443 55.1075 327.039 50.6004 332.791 50.6004C334.22 50.5507 335.635 50.8946 336.882 51.5947C338.129 52.2948 339.159 53.3241 339.861 54.5702H340.213V50.974H344.47V73.674C344.47 78.8229 340.437 82.0895 334.07 82.0895C328.445 82.0898 324.805 79.5677 324.331 75.742ZM340.11 61.9505C340.11 57.4655 337.791 54.5921 334.006 54.5921C330.183 54.5921 328.035 57.4657 328.035 61.9505C328.035 66.4378 330.183 69.3114 334.006 69.3114C337.815 69.3113 340.11 66.4598 340.11 61.9505H340.11Z" fill="white"/>
<path d="M350.266 67.1216C350.266 63.0688 353.284 60.7324 358.64 60.4004L364.739 60.0488V58.1055C364.739 55.7275 363.167 54.3848 360.13 54.3848C357.649 54.3848 355.93 55.2954 355.437 56.8872H351.135C351.59 53.02 355.227 50.5396 360.335 50.5396C365.979 50.5396 369.163 53.3496 369.163 58.1055V73.4887H364.885V70.3247H364.534C363.82 71.4597 362.818 72.3849 361.63 73.006C360.442 73.627 359.11 73.9216 357.771 73.8597C356.826 73.958 355.871 73.8572 354.967 73.5637C354.063 73.2702 353.231 72.7906 352.524 72.1557C351.817 71.5209 351.25 70.7449 350.862 69.8778C350.473 69.0107 350.27 68.0718 350.266 67.1216ZM364.739 65.1977V63.3154L359.241 63.667C356.14 63.8745 354.734 64.9291 354.734 66.914C354.734 68.9403 356.492 70.1196 358.909 70.1196C359.617 70.1912 360.333 70.1197 361.013 69.9093C361.693 69.6988 362.323 69.3537 362.867 68.8945C363.411 68.4353 363.857 67.8714 364.179 67.2363C364.5 66.6012 364.691 65.9079 364.739 65.1977Z" fill="white"/>
<path d="M376.326 42.1851H380.769V73.4887H376.326V42.1851Z" fill="white"/>
<path d="M386.946 62.2214C386.804 60.7418 386.974 59.249 387.443 57.8387C387.912 56.4283 388.671 55.1316 389.671 54.0317C390.67 52.9318 391.889 52.053 393.248 51.4516C394.607 50.8502 396.077 50.5396 397.564 50.5396C399.05 50.5396 400.52 50.8502 401.879 51.4516C403.238 52.053 404.457 52.9318 405.457 54.0317C406.456 55.1316 407.215 56.4283 407.684 57.8387C408.154 59.249 408.323 60.7418 408.181 62.2214C408.326 63.7026 408.158 65.1975 407.69 66.6101C407.222 68.0227 406.464 69.3218 405.464 70.4239C404.464 71.5259 403.245 72.4066 401.884 73.0093C400.523 73.612 399.052 73.9233 397.564 73.9233C396.076 73.9233 394.604 73.612 393.243 73.0093C391.883 72.4066 390.663 71.5259 389.663 70.4239C388.663 69.3218 387.905 68.0227 387.437 66.6101C386.969 65.1975 386.802 63.7026 386.946 62.2214ZM403.611 62.2214C403.611 57.3411 401.419 54.4871 397.571 54.4871C393.709 54.4871 391.536 57.3411 391.536 62.2215C391.536 67.1409 393.709 69.9729 397.571 69.9729C401.419 69.9729 403.611 67.1213 403.611 62.2214H403.611Z" fill="white"/>
<path d="M445.398 67.41C444.794 69.4677 443.486 71.2476 441.703 72.4383C439.92 73.6291 437.774 74.1548 435.642 73.9236C434.159 73.9628 432.685 73.6787 431.322 73.091C429.96 72.5034 428.742 71.6263 427.752 70.5206C426.762 69.4149 426.025 68.1071 425.592 66.688C425.158 65.2689 425.039 63.7724 425.242 62.3025C425.044 60.8281 425.166 59.3284 425.598 57.9051C426.031 56.4817 426.764 55.1679 427.748 54.0525C428.733 52.9371 429.945 52.0463 431.304 51.4402C432.662 50.8342 434.135 50.5271 435.623 50.5398C441.887 50.5398 445.667 54.8198 445.667 61.8898V63.4403H429.768V63.6893C429.699 64.5155 429.803 65.3472 430.073 66.1309C430.344 66.9147 430.775 67.6332 431.34 68.2405C431.904 68.8478 432.589 69.3304 433.351 69.6574C434.113 69.9844 434.935 70.1485 435.764 70.1393C436.827 70.2669 437.904 70.0755 438.858 69.5895C439.812 69.1035 440.599 68.3447 441.121 67.4098L445.398 67.41ZM429.768 60.1541H441.14C441.196 59.3985 441.093 58.6395 440.839 57.9259C440.584 57.2123 440.183 56.5599 439.661 56.0106C439.139 55.4613 438.508 55.0273 437.808 54.7364C437.108 54.4455 436.356 54.3042 435.598 54.3216C434.83 54.312 434.067 54.4563 433.355 54.746C432.643 55.0357 431.997 55.465 431.453 56.0086C430.91 56.5522 430.481 57.199 430.192 57.911C429.902 58.6229 429.758 59.3856 429.768 60.1541H429.768Z" fill="white"/>
<path d="M451.633 50.9743H455.911V54.551H456.243C456.806 53.2664 457.756 52.1895 458.961 51.4705C460.165 50.7515 461.564 50.4261 462.962 50.5397C464.057 50.4574 465.157 50.6226 466.18 51.023C467.203 51.4235 468.123 52.049 468.871 52.8533C469.62 53.6575 470.178 54.6198 470.504 55.6689C470.83 56.718 470.915 57.827 470.755 58.9137V73.4887H466.311V60.0295C466.311 56.4114 464.739 54.612 461.453 54.612C460.709 54.5774 459.967 54.704 459.276 54.9831C458.586 55.2623 457.964 55.6874 457.454 56.2293C456.943 56.7713 456.556 57.4172 456.318 58.1228C456.08 58.8285 455.998 59.5772 456.077 60.3176V73.489H451.633V50.9743Z" fill="white"/>
<path d="M508.88 67.41C508.276 69.4677 506.968 71.2476 505.184 72.4383C503.401 73.6291 501.256 74.1548 499.124 73.9236C497.64 73.9628 496.166 73.6787 494.804 73.091C493.441 72.5034 492.223 71.6263 491.233 70.5206C490.244 69.4149 489.507 68.1071 489.073 66.688C488.64 65.2689 488.52 63.7724 488.723 62.3025C488.526 60.8281 488.647 59.3284 489.08 57.9051C489.512 56.4817 490.245 55.1679 491.23 54.0525C492.214 52.9371 493.427 52.0463 494.785 51.4402C496.144 50.8342 497.617 50.5271 499.104 50.5398C505.369 50.5398 509.148 54.8198 509.148 61.8898V63.4403H493.25V63.6893C493.18 64.5155 493.284 65.3472 493.555 66.1309C493.825 66.9147 494.257 67.6332 494.821 68.2405C495.386 68.8478 496.071 69.3304 496.833 69.6574C497.595 69.9844 498.417 70.1485 499.246 70.1393C500.309 70.2669 501.385 70.0755 502.339 69.5895C503.293 69.1035 504.081 68.3447 504.602 67.4098L508.88 67.41ZM493.25 60.1541H504.622C504.678 59.3985 504.575 58.6395 504.32 57.9259C504.065 57.2123 503.664 56.5599 503.142 56.0106C502.62 55.4613 501.989 55.0273 501.29 54.7364C500.59 54.4455 499.837 54.3042 499.08 54.3216C498.311 54.312 497.548 54.4562 496.837 54.746C496.125 55.0357 495.478 55.465 494.935 56.0086C494.391 56.5521 493.962 57.199 493.673 57.9109C493.384 58.6229 493.24 59.3856 493.25 60.1541H493.25Z" fill="white"/>
<path d="M515.32 42.1851H519.763V73.4887H515.32V42.1851Z" fill="white"/>
</g>
<defs>
<clipPath id="clip0_8150_373974">
<rect width="598.32" height="200" fill="white"/>
</clipPath>
</defs>
</svg>
