<svg width="672" height="200" viewBox="0 0 672 200" fill="none" xmlns="http://www.w3.org/2000/svg">
<g clip-path="url(#clip0_8150_373973)">
<g clip-path="url(#clip1_8150_373973)">
<path d="M645.705 199H23.8301C10.1488 199 -1.04492 187.806 -1.04492 174.125V24.875C-1.04492 11.1938 10.1488 0 23.8301 0H645.705C659.386 0 670.58 11.1938 670.58 24.875V174.125C670.58 187.806 659.386 199 645.705 199Z" fill="#100F0D"/>
<path d="M645.705 0H23.8301C10.1488 0 -1.04492 11.1938 -1.04492 24.875V174.125C-1.04492 187.806 10.1488 199 23.8301 199H645.705C659.386 199 670.58 187.806 670.58 174.125V24.875C670.58 11.1938 659.386 0 645.705 0ZM645.705 3.97801C657.227 3.97801 666.6 13.3529 666.6 24.875V174.125C666.6 185.647 657.227 195.022 645.705 195.022H23.8301C12.3079 195.022 2.93702 185.647 2.93702 174.125V24.875C2.93702 13.3529 12.3079 3.97801 23.8301 3.97801H645.705Z" fill="#A2A2A1"/>
<path d="M102.023 96.6354L49.0566 152.853C49.0586 152.865 49.0626 152.874 49.0646 152.886C50.6889 158.99 56.2644 163.485 62.8817 163.485C65.5269 163.485 68.0104 162.77 70.1402 161.515L70.3093 161.415L129.93 127.012L102.023 96.6354Z" fill="#EB3131"/>
<path d="M155.609 87.0626L155.559 87.0277L129.819 72.1062L100.82 97.9106L129.92 127.006L155.524 112.233C160.013 109.81 163.06 105.078 163.06 99.6205C163.06 94.2027 160.054 89.4939 155.609 87.0626Z" fill="#F6B60B"/>
<path d="M49.0546 46.1546C48.7362 47.3287 48.5688 48.5585 48.5688 49.8356V149.174C48.5688 150.449 48.7342 151.683 49.0566 152.853L103.846 98.0737L49.0546 46.1546Z" fill="#5778C5"/>
<path d="M102.414 99.5039L129.829 72.0966L70.276 37.5691C68.1114 36.2726 65.5851 35.5244 62.8817 35.5244C56.2645 35.5244 50.6815 40.0273 49.0567 46.1391C49.0547 46.145 49.0547 46.149 49.0547 46.1545L102.414 99.5039Z" fill="#3BAD49"/>
</g>
<path d="M532.02 149.751H541.304V87.5563H532.02V149.751ZM615.637 109.96L604.995 136.925H604.677L593.632 109.96H583.632L600.194 147.648L590.751 168.612H600.438L625.96 109.96H615.637ZM562.99 142.687C559.945 142.687 555.707 141.167 555.707 137.405C555.707 132.605 560.99 130.764 565.547 130.764C569.632 130.764 571.547 131.644 574.03 132.846C573.309 138.606 568.348 142.687 562.99 142.687ZM564.11 108.6C557.388 108.6 550.428 111.561 547.547 118.122L555.786 121.562C557.547 118.122 560.826 117.001 564.269 117.001C569.07 117.001 573.95 119.883 574.03 125.004V125.643C572.348 124.683 568.751 123.243 564.348 123.243C555.468 123.243 546.423 128.123 546.423 137.245C546.423 145.567 553.707 150.929 561.866 150.929C568.11 150.929 571.547 148.128 573.712 144.848H574.03V149.648H582.99V125.803C582.99 114.762 574.751 108.6 564.11 108.6ZM506.736 117.531H493.532V96.2125H506.736C513.677 96.2125 517.617 101.959 517.617 106.872C517.617 111.692 513.677 117.531 506.736 117.531ZM506.498 87.5563H484.254V149.751H493.532V126.188H506.498C516.786 126.188 526.901 118.738 526.901 106.872C526.901 95.0055 516.786 87.5563 506.498 87.5563ZM385.199 142.699C378.786 142.699 373.416 137.329 373.416 129.954C373.416 122.501 378.786 117.05 385.199 117.05C391.531 117.05 396.5 122.501 396.5 129.954C396.5 137.329 391.531 142.699 385.199 142.699ZM395.859 113.443H395.538C393.455 110.959 389.445 108.714 384.397 108.714C373.816 108.714 364.119 118.011 364.119 129.954C364.119 141.816 373.816 151.034 384.397 151.034C389.445 151.034 393.455 148.789 395.538 146.226H395.859V149.271C395.859 157.368 391.531 161.696 384.558 161.696C378.867 161.696 375.34 157.607 373.896 154.161L365.802 157.527C368.126 163.137 374.299 170.031 384.558 170.031C395.458 170.031 404.676 163.617 404.676 147.989V109.997H395.859V113.443ZM411.087 149.751H420.385V87.5543H411.087V149.751ZM434.091 129.233C433.85 121.057 440.423 116.89 445.151 116.89C448.841 116.89 451.965 118.732 453.005 121.38L434.091 129.233ZM462.945 122.18C461.184 117.45 455.811 108.714 444.83 108.714C433.93 108.714 424.874 117.291 424.874 129.874C424.874 141.737 433.85 151.034 445.872 151.034C455.572 151.034 461.184 145.103 463.508 141.657L456.294 136.847C453.891 140.374 450.602 142.699 445.872 142.699C441.144 142.699 437.778 140.534 435.613 136.287L463.906 124.584L462.945 122.18ZM237.531 115.207V124.184H259.011C258.37 129.233 256.687 132.919 254.122 135.485C250.997 138.611 246.107 142.057 237.531 142.057C224.306 142.057 213.967 131.398 213.967 118.173C213.967 104.948 224.306 94.2866 237.531 94.2866C244.665 94.2866 249.874 97.0926 253.721 100.7L260.053 94.3682C254.684 89.2374 247.549 85.31 237.531 85.31C219.416 85.31 204.188 100.058 204.188 118.173C204.188 136.287 219.416 151.034 237.531 151.034C247.31 151.034 254.684 147.829 260.454 141.816C266.385 135.885 268.229 127.55 268.229 120.818C268.229 118.732 268.07 116.81 267.747 115.207H237.531ZM292.65 142.699C286.237 142.699 280.706 137.408 280.706 129.874C280.706 122.26 286.237 117.05 292.65 117.05C299.061 117.05 304.592 122.26 304.592 129.874C304.592 137.408 299.061 142.699 292.65 142.699ZM292.65 108.714C280.947 108.714 271.408 117.611 271.408 129.874C271.408 142.057 280.947 151.034 292.65 151.034C304.351 151.034 313.89 142.057 313.89 129.874C313.89 117.611 304.351 108.714 292.65 108.714ZM338.985 142.699C332.574 142.699 327.042 137.408 327.042 129.874C327.042 122.26 332.574 117.05 338.985 117.05C345.396 117.05 350.927 122.26 350.927 129.874C350.927 137.408 345.396 142.699 338.985 142.699ZM338.985 108.714C327.282 108.714 317.745 117.611 317.745 129.874C317.745 142.057 327.282 151.034 338.985 151.034C350.686 151.034 360.224 142.057 360.224 129.874C360.224 117.611 350.686 108.714 338.985 108.714Z" fill="white"/>
<path d="M209.208 61.5071H214.504C217.947 61.5071 220.678 60.5201 222.695 58.5455C224.713 56.5728 225.717 53.8052 225.717 50.2489C225.717 46.7196 224.713 43.9619 222.695 41.9718C220.678 39.9877 217.947 38.9907 214.504 38.9907H209.208V61.5071ZM205.376 65.1743V35.3236H214.504C219.09 35.3236 222.757 36.7051 225.513 39.4728C228.263 42.2365 229.637 45.8275 229.637 50.2489C229.637 54.6683 228.263 58.2614 225.513 61.0251C222.757 63.7927 219.09 65.1743 214.504 65.1743H205.376Z" fill="white"/>
<path d="M209.208 61.5069V62.0045H214.504C218.039 62.0084 220.925 60.9801 223.043 58.901C225.173 56.8194 226.218 53.8945 226.214 50.2487C226.218 46.6303 225.173 43.7129 223.045 41.6179C220.925 39.5269 218.041 38.489 214.504 38.493H209.208H208.711V62.0045H209.208V61.5069H209.706V39.4881H214.504C217.856 39.494 220.433 40.4482 222.347 42.3274L222.345 42.3254C224.25 44.2104 225.216 46.8089 225.219 50.2487C225.216 53.7159 224.25 56.3239 222.347 58.1895C220.433 60.0592 217.858 61.0035 214.504 61.0094H209.208V61.5069H209.706H209.208ZM205.376 65.1741H205.873V35.8209H214.504C218.993 35.8249 222.503 37.1597 225.161 39.8244C227.812 42.4945 229.136 45.9283 229.139 50.2487C229.136 54.5671 227.812 58.003 225.159 60.6731C222.503 63.3378 218.993 64.6726 214.504 64.6766H205.376V65.1741H205.873H205.376V65.6716H214.504C219.187 65.6756 223.014 64.2472 225.865 61.3766C228.714 58.5179 230.14 54.7671 230.134 50.2487C230.14 45.7264 228.714 41.9796 225.865 39.1229C223.014 36.2502 219.187 34.8219 214.504 34.8259H204.878V65.6716H205.376V65.1741Z" fill="white"/>
<path d="M235.023 65.1743V35.3236H238.855V65.1743H235.023Z" fill="white"/>
<path d="M235.023 65.1741H235.52V35.8209H238.357V64.6766H235.023V65.1741H235.52H235.023V65.6716H238.855H239.352V34.8259H235.023H234.525V65.6716H235.023V65.1741Z" fill="white"/>
<path d="M254.111 65.8406C251.943 65.8406 249.825 65.1331 247.755 63.7162C245.68 62.2978 244.325 60.3117 243.688 57.752L247.192 56.3351C247.61 57.9754 248.459 59.359 249.753 60.4824C251.049 61.6077 252.498 62.1714 254.111 62.1714C255.776 62.1714 257.204 61.7341 258.386 60.8595C259.567 59.9849 260.154 58.7958 260.154 57.2933C260.154 55.6276 259.567 54.3416 258.386 53.4376C257.204 52.5341 255.335 51.6943 252.779 50.9152C250.136 50.0834 248.134 49.0047 246.774 47.6834C245.413 46.3635 244.727 44.6769 244.727 42.6187C244.727 40.4769 245.579 38.6172 247.274 37.0331C248.97 35.4495 251.18 34.6545 253.903 34.6545C256.433 34.6545 258.489 35.2903 260.071 36.5535C261.657 37.8187 262.685 39.2003 263.157 40.7023L259.659 42.158C259.406 41.2177 258.79 40.3391 257.803 39.5326C256.816 38.7301 255.545 38.3256 253.984 38.3256C252.513 38.3256 251.254 38.7336 250.214 39.556C249.168 40.3759 248.649 41.3963 248.649 42.6187C248.649 43.7301 249.131 44.6689 250.088 45.4326C251.049 46.1963 252.458 46.8863 254.32 47.4968C255.792 47.9709 257.019 48.4276 258.013 48.8724C258.998 49.3157 259.999 49.9082 261.01 50.645C262.026 51.3794 262.788 52.2988 263.303 53.3968C263.817 54.4948 264.076 55.7659 264.076 57.2097C264.076 58.6555 263.779 59.948 263.18 61.0868C262.584 62.2296 261.787 63.1316 260.802 63.7978C259.815 64.4645 258.755 64.9719 257.614 65.3197C256.472 65.6674 255.306 65.8406 254.111 65.8406Z" fill="white"/>
<path d="M254.111 65.841V65.3435C252.054 65.3415 250.041 64.6768 248.037 63.3067C246.059 61.9504 244.786 60.0883 244.172 57.634L243.688 57.7524L243.875 58.2151L247.378 56.7982L247.192 56.3355L246.71 56.4599C247.149 58.1917 248.061 59.6743 249.425 60.8579L249.427 60.8599C250.797 62.0514 252.379 62.6733 254.111 62.6693C255.861 62.6713 257.411 62.2027 258.681 61.2604C259.98 60.3101 260.662 58.9241 260.652 57.2937C260.662 55.5136 259.995 54.0345 258.689 53.0435C257.424 52.0798 255.512 51.2305 252.925 50.4395H252.929C250.332 49.6251 248.401 48.5738 247.12 47.3261C245.859 46.0957 245.231 44.5664 245.225 42.6191C245.231 40.6136 246.003 38.9111 247.614 37.3972C249.213 35.9087 251.275 35.1564 253.903 35.1524C256.353 35.1544 258.281 35.7629 259.762 36.9425C261.291 38.1649 262.247 39.4669 262.683 40.8504L263.157 40.7027L262.967 40.2425L259.466 41.6997L259.659 42.1584L260.139 42.0301C259.853 40.9634 259.161 39.9992 258.117 39.148C257.029 38.2599 255.626 37.8266 253.984 37.8286C252.421 37.8266 251.036 38.2698 249.905 39.1659L249.907 39.1639C248.764 40.0519 248.144 41.2509 248.152 42.6191C248.144 43.8783 248.725 44.9922 249.777 45.8221L249.779 45.8236C250.813 46.642 252.268 47.3475 254.165 47.9693L254.167 47.9713C255.626 48.4395 256.841 48.8922 257.807 49.3276H257.809C258.757 49.7534 259.729 50.3286 260.716 51.0475H260.718C261.668 51.7375 262.372 52.5848 262.852 53.6091C263.332 54.6295 263.579 55.8246 263.579 57.2101C263.577 58.5902 263.297 59.7947 262.741 60.8579C262.176 61.9325 261.437 62.7664 260.521 63.3863C259.575 64.0256 258.563 64.5116 257.469 64.844C256.373 65.1783 255.257 65.3435 254.111 65.3435V65.841V66.3385C255.354 66.3385 256.571 66.1579 257.758 65.7962C258.947 65.4345 260.053 64.9042 261.08 64.2121V64.2102C262.135 63.4972 262.99 62.5276 263.621 61.3186C264.261 60.1022 264.574 58.7241 264.574 57.2101C264.574 55.7082 264.304 54.3614 263.754 53.1853C263.204 52.0136 262.382 51.0226 261.301 50.241L261.303 50.243C260.269 49.4893 259.239 48.8788 258.215 48.4201L258.211 48.4181L258.217 48.4201C257.201 47.9614 255.957 47.5012 254.472 47.0231H254.474C252.647 46.4261 251.287 45.7519 250.397 45.0445H250.399C249.535 44.345 249.155 43.5833 249.147 42.6191C249.155 41.5425 249.575 40.7012 250.521 39.947L250.523 39.945C251.471 39.1987 252.602 38.8256 253.984 38.8236C255.461 38.8256 256.604 39.1987 257.488 39.9196L257.494 39.9236L257.488 39.9176C258.417 40.6798 258.959 41.4703 259.179 42.2888L259.324 42.837L263.347 41.1614L263.767 40.9868L263.631 40.5534C263.124 38.9345 262.02 37.4728 260.382 36.1629C258.695 34.8161 256.513 34.1554 253.903 34.1574C251.087 34.1534 248.729 34.9912 246.935 36.6703C245.155 38.3241 244.226 40.3435 244.23 42.6191C244.226 44.7863 244.971 46.634 246.428 48.041C247.868 49.4365 249.94 50.5425 252.629 51.3897H252.633C255.158 52.1594 256.987 52.9912 258.085 53.8325C259.138 54.6509 259.647 55.741 259.657 57.2937C259.647 58.6659 259.153 59.6609 258.091 60.4594C257 61.2664 255.691 61.6723 254.111 61.6743C252.616 61.6703 251.302 61.1649 250.078 60.1077C248.857 59.043 248.07 57.7624 247.674 56.2131L247.534 55.6614L243.503 57.2917L243.101 57.4529L243.206 57.8728C243.865 60.5335 245.301 62.646 247.476 64.1271C249.61 65.5902 251.833 66.3385 254.111 66.3385V65.841Z" fill="white"/>
<path d="M273.415 49.4131H279.837C281.45 49.4131 282.743 48.8728 283.715 47.7907C284.686 46.7042 285.17 45.5126 285.17 44.2051C285.17 42.8992 284.686 41.7017 283.715 40.6196C282.743 39.533 281.45 38.9907 279.837 38.9907H273.415V49.4131ZM273.415 65.1743H269.58V35.3236H279.754C282.28 35.3236 284.47 36.1629 286.317 37.844C288.169 39.5251 289.092 41.6474 289.092 44.2051C289.092 46.7604 288.169 48.8788 286.317 50.5599C284.47 52.243 282.28 53.0843 279.754 53.0843H273.415V65.1743Z" fill="white"/>
<path d="M273.414 49.4129V49.9104H279.837C281.557 49.9164 283.022 49.3139 284.084 48.1229C285.123 46.9662 285.671 45.6368 285.667 44.205C285.671 42.7726 285.123 41.4413 284.084 40.287C283.022 39.0915 281.559 38.4871 279.837 38.493H273.414H272.915V49.9104H273.414V49.4129H273.912V39.488H279.837C281.339 39.496 282.461 39.9741 283.343 40.9512C284.247 41.9642 284.671 43.0234 284.672 44.205C284.671 45.3865 284.247 46.4418 283.343 47.4582C282.461 48.4338 281.341 48.9099 279.837 48.9154H273.414V49.4129H273.912H273.414ZM273.414 65.1741V64.6766H270.077V35.8209H279.754C282.169 35.8249 284.217 36.6119 285.982 38.2134C287.735 39.8124 288.589 41.7657 288.594 44.205C288.589 46.6398 287.735 48.591 285.982 50.1925C284.217 51.7955 282.169 52.5826 279.754 52.5866H273.414H272.915V65.1741H273.414V64.6766V65.1741H273.912V53.5816H279.754C282.391 53.5856 284.725 52.6895 286.653 50.9269C288.602 49.1662 289.595 46.8806 289.589 44.205C289.595 41.5268 288.602 39.2393 286.653 37.4766C284.725 35.7159 282.391 34.8219 279.754 34.8259H269.082V65.6716H273.414H273.912V65.1741H273.414Z" fill="white"/>
<path d="M299.281 58.8172C301.491 61.054 304.192 62.1714 307.389 62.1714C310.586 62.1714 313.293 61.054 315.497 58.8172C317.709 56.5804 318.816 53.7212 318.816 50.2485C318.816 46.7759 317.709 43.9167 315.497 41.6799C313.293 39.4431 310.586 38.3256 307.389 38.3256C304.192 38.3256 301.491 39.4431 299.281 41.6799C297.073 43.9167 295.968 46.7759 295.968 50.2485C295.968 53.7212 297.073 56.5804 299.281 58.8172ZM318.336 61.3162C315.4 64.3341 311.752 65.8406 307.389 65.8406C303.026 65.8406 299.376 64.3341 296.447 61.3162C293.513 58.3018 292.05 54.6117 292.05 50.2485C292.05 45.8853 293.513 42.1948 296.447 39.1809C299.376 36.1625 303.026 34.6545 307.389 34.6545C311.726 34.6545 315.367 36.1704 318.315 39.2003C321.259 42.2301 322.732 45.9127 322.732 50.2485C322.732 54.6117 321.265 58.3018 318.336 61.3162Z" fill="white"/>
<path d="M299.281 58.8176L298.926 59.1673C301.219 61.4937 304.075 62.6753 307.389 62.6693C310.703 62.6753 313.565 61.4937 315.852 59.1673C318.157 56.839 319.318 53.8266 319.314 50.2489C319.318 46.6713 318.157 43.6589 315.852 41.3305L315.845 41.3246L315.852 41.3305C313.565 39.0042 310.703 37.8226 307.389 37.8285C304.075 37.8226 301.219 39.0042 298.926 41.3305L298.91 41.348L298.926 41.3305C296.625 43.6589 295.464 46.6713 295.47 50.2489C295.464 53.8266 296.625 56.839 298.926 59.1673L299.281 58.8176L299.635 58.4678C297.524 56.3201 296.469 53.6186 296.465 50.2489C296.469 46.8793 297.524 44.1778 299.635 42.03C301.763 39.8828 304.309 38.8295 307.389 38.8236C310.469 38.8295 313.019 39.8828 315.143 42.03C317.259 44.1778 318.315 46.8793 318.319 50.2489C318.315 53.6186 317.259 56.3201 315.143 58.4678C313.019 60.6151 310.469 61.6683 307.389 61.6743C304.309 61.6683 301.763 60.6151 299.635 58.4678L299.281 58.8176ZM318.336 61.3166L317.979 60.9708C315.128 63.8937 311.638 65.3375 307.389 65.3435C303.141 65.3375 299.65 63.8937 296.805 60.9708H296.803C293.958 58.038 292.553 54.5012 292.547 50.2489C292.553 45.9967 293.958 42.4599 296.803 39.5271H296.805C299.65 36.6042 303.141 35.1584 307.389 35.1524C311.612 35.1584 315.093 36.6101 317.959 39.5484C320.816 42.4947 322.231 46.0261 322.235 50.2489C322.231 54.5012 320.82 58.038 317.979 60.9708L318.336 61.3166L318.692 61.6624C321.71 58.5649 323.234 54.7226 323.23 50.2489C323.234 45.8007 321.704 41.9664 318.672 38.8549C315.641 35.7315 311.843 34.1519 307.389 34.1574C302.912 34.1519 299.104 35.7241 296.09 38.8355L296.092 38.8335C293.068 41.933 291.548 45.7753 291.552 50.2489C291.548 54.7226 293.068 58.5649 296.092 61.6644L296.104 61.6783L296.09 61.6624C299.104 64.7738 302.912 66.3425 307.389 66.3385C311.867 66.3425 315.674 64.7738 318.692 61.6624L318.336 61.3166Z" fill="white"/>
<path d="M328.116 65.1743V35.3236H332.784L347.293 58.5455H347.458L347.293 52.7927V35.3236H351.129V65.1743H347.128L331.95 40.827H331.785L331.95 46.5818V65.1743H328.116Z" fill="white"/>
<path d="M328.116 65.1741H328.613V35.8209H332.51L347.017 59.0428H347.458H347.969L347.789 52.7851L347.791 35.8209H350.632V64.6766H347.402L332.226 40.3293H331.785H331.271L331.452 46.5875V64.6766H328.116V65.1741H328.613H328.116V65.6716H331.95H332.447V46.5736L332.28 40.8134L331.785 40.8269V41.3244H331.95V40.8269L331.526 41.0915L346.852 65.6716H351.129H351.627V34.8259H347.293H346.796V52.7985L346.961 58.5587L347.458 58.5453V58.0477H347.293V58.5453L347.715 58.2811L333.059 34.8259H328.116H327.618V65.6716H328.116V65.1741Z" fill="white"/>
<path d="M357.966 65.1743V35.3236H361.801V65.1743H357.966Z" fill="white"/>
<path d="M357.966 65.1741H358.464V35.8209H361.303V64.6766H357.966V65.1741H358.464H357.966V65.6716H361.801H362.298V34.8259H357.966H357.469V65.6716H357.966V65.1741Z" fill="white"/>
<path d="M372.468 61.5071H380.185C381.656 61.5071 382.851 60.9922 383.771 59.9604C384.688 58.936 385.145 57.8086 385.145 56.5843C385.145 55.3619 384.672 54.2445 383.726 53.23C382.784 52.2156 381.543 51.7066 380.014 51.7066H372.468V61.5071ZM372.468 48.1211H379.431C380.879 48.1211 382.039 47.645 382.913 46.6828C383.79 45.7246 384.227 44.6773 384.227 43.5365C384.227 42.3977 383.803 41.3519 382.952 40.4116C382.107 39.4648 380.992 38.9907 379.6 38.9907H372.468V48.1211ZM368.635 65.1743V35.3236H379.431C381.769 35.3236 383.79 36.0972 385.5 37.636C387.21 39.1813 388.066 41.1186 388.066 43.4529C388.066 44.8693 387.697 46.1211 386.956 47.2057C386.223 48.2897 385.242 49.1101 384.017 49.6659V49.831C385.491 50.3305 386.699 51.1932 387.648 52.4156C388.589 53.64 389.065 55.0589 389.065 56.6698C389.065 59.1146 388.167 61.1435 386.373 62.7549C384.581 64.3678 382.463 65.1743 380.014 65.1743H368.635Z" fill="white"/>
<path d="M372.468 61.5069V62.0045H380.185C381.771 62.0104 383.137 61.4273 384.142 60.292H384.14C385.125 59.198 385.646 57.9348 385.642 56.5841C385.646 55.2318 385.106 53.9741 384.09 52.89C383.057 51.7721 381.652 51.203 380.014 51.2089H371.97V62.0045H372.468V61.5069H372.965V52.204H380.014C381.437 52.2094 382.51 52.6607 383.363 53.5681C384.241 54.5164 384.643 55.494 384.647 56.5841C384.643 57.6821 384.251 58.6736 383.4 59.6293H383.398C382.566 60.5547 381.541 61.0015 380.185 61.0094H372.468V61.5069H372.965H372.468ZM372.468 48.1209V48.6184H379.431C380.986 48.6239 382.317 48.0875 383.283 47.0169L383.281 47.0189C384.223 45.9925 384.727 44.8069 384.725 43.5363C384.727 42.2731 384.243 41.0915 383.323 40.0771V40.0791C382.391 39.0253 381.103 38.487 379.6 38.493H371.97V48.6184H372.468V48.1209H372.965V39.488H379.6C380.879 39.496 381.825 39.904 382.583 40.7418V40.7438C383.365 41.6144 383.726 42.5239 383.73 43.5363C383.726 44.5448 383.355 45.4582 382.548 46.3462L382.546 46.3482C381.763 47.2015 380.772 47.6174 379.431 47.6234H372.468V48.1209H372.965H372.468ZM368.635 65.1741H369.133V35.8209H379.431C381.658 35.8249 383.537 36.5438 385.166 38.0054C386.779 39.4706 387.56 41.2413 387.568 43.4527C387.566 44.7841 387.226 45.9249 386.546 46.9254H386.544C385.86 47.9363 384.96 48.69 383.812 49.2129L383.52 49.3452V49.8308V50.1865L383.858 50.301C385.244 50.7756 386.361 51.5721 387.253 52.7209V52.7189C388.13 53.8617 388.565 55.1557 388.567 56.6696C388.561 58.994 387.737 60.8537 386.04 62.3855C384.33 63.9189 382.354 64.6726 380.014 64.6766H368.635V65.1741H369.133H368.635V65.6716H380.014C382.572 65.6756 384.832 64.8164 386.707 63.1239C388.596 61.4348 389.57 59.2368 389.562 56.6696C389.566 54.9617 389.049 53.4184 388.04 52.1124V52.1104C387.037 50.8164 385.735 49.887 384.177 49.3607L384.017 49.8308H384.515V49.6656H384.017L384.223 50.1184C385.523 49.5298 386.587 48.6453 387.37 47.4831L387.368 47.4851C388.165 46.3174 388.563 44.9547 388.563 43.4527C388.569 40.998 387.64 38.8915 385.832 37.2666L385.821 37.2572L385.832 37.2666C384.041 35.6477 381.878 34.8219 379.431 34.8258H368.138V65.6716H368.635V65.1741Z" fill="white"/>
<path d="M394.234 65.1743V35.3236H398.068V61.5071H410.992V65.1743H394.234Z" fill="white"/>
<path d="M394.234 65.1741H394.732V35.8209H397.571V62.0045H410.495V64.6766H394.234V65.1741H394.732H394.234V65.6716H411.49V61.507V61.0094H398.566V34.8259H394.234H393.736V65.6716H394.234V65.1741Z" fill="white"/>
<path d="M433.26 38.9907H419.663V48.4554H431.922V52.0425H419.663V61.5071H433.26V65.1743H415.831V35.3236H433.26V38.9907Z" fill="white"/>
<path d="M433.26 38.9905V38.493H419.166V48.9527H431.425V51.5433L419.166 51.5448V62.0045H432.762V64.6766H416.329V35.8209H432.762V38.9905H433.26V38.493V38.9905H433.757V35.3234V34.8259H415.334V65.6716H433.757V61.507V61.0094H420.161V52.5398H432.42V48.4552V47.9577H420.161V39.488H433.757V38.9905H433.26Z" fill="white"/>
<path d="M466.697 38.9907H453.1V48.4554H465.358V52.0425H453.1V61.5071H466.697V65.1743H449.269V35.3236H466.697V38.9907Z" fill="white"/>
<path d="M466.697 38.9905V38.493H452.602V48.9527H464.861V51.5433L452.602 51.5448V62.0045H466.199V64.6766H449.766V35.8209H466.199V38.9905H466.697V38.493V38.9905H467.194V35.3234V34.8259H448.771V65.6716H467.194V61.507V61.0094H453.597V52.5398H465.856V48.4552V47.9577H453.597V39.488H467.194V38.9905H466.697Z" fill="white"/>
<path d="M472.697 65.1743V35.3236H477.363L491.871 58.5455H492.035L491.871 52.7927V35.3236H495.711V65.1743H491.706L476.527 40.827H476.363L476.527 46.5818V65.1743H472.697Z" fill="white"/>
<path d="M472.697 65.1741H473.194V35.8209H477.09L491.597 59.0428H492.035H492.547L492.368 52.7851V35.8209H495.214V64.6766H491.98L476.806 40.3293H476.363H475.851L476.03 46.5875V64.6766H472.697V65.1741H473.194H472.697V65.6716H476.527H477.025V46.5736L476.861 40.8134L476.363 40.8269V41.3244H476.527V40.8269L476.105 41.0915L491.433 65.6716H495.712H496.209V34.8259H491.871H491.373V52.7985L491.537 58.5587L492.035 58.5453V58.0477H491.871V58.5453L492.294 58.2811L477.642 34.8259H472.697H472.199V65.6716H472.697V65.1741Z" fill="white"/>
</g>
<defs>
<clipPath id="clip0_8150_373973">
<rect width="671.642" height="200" fill="white"/>
</clipPath>
<clipPath id="clip1_8150_373973">
<rect width="673.134" height="200" fill="white" transform="translate(-1.04492)"/>
</clipPath>
</defs>
</svg>
